:SAMPLES-PER-SECOND 30
:FULLY-SPECIFIED
:DEGREES
513
root  -54.9288 5.67822 -21.14 162.884 -60.0898 -163.055
RightUpLeg  -91.3678 -3.66975 8.51258
RightLeg  161.602 13.6216 -5.19344
RightFoot  -55.4805 6.87158 13.6544
RightToes  10.5801 0.0259682 0.102761
Spine  23.7103 2.18243 3.23643
Spine1  37.675 2.43617 6.28393
HEad  -72.4244 44.6862 -12.9769
LeftShoulder1  -1.94126e-019 -3.10601e-018 -2.51263e-017
LeftArm  36.3439 -65.8921 -124.218
LeftForeArm  51.4441 -4.021 -0.669354
LeftHand  -0.543082 -3.94985 7.01857
RightShoulder  -4.96962e-017 0 -2.36833e-017
RightArm  24.3766 69.955 111.553
RightForeArm  79.7701 1.3389 0.147405
RightHand  -0.163149 -4.07028 -13.2377
LeftUpLeg  -90.2787 14.133 26.164
LeftLeg  165.103 -5.63062 1.89163
LeftFoot  -52.944 -6.66204 -13.1714
LeftToes  6.94626 2.03064e-006 1.83538e-008
514
root  -54.8902 5.69132 -21.1955 162.514 -59.3673 -162.047
RightUpLeg  -92.0214 -3.07352 9.93805
RightLeg  161.318 14.0181 -5.42765
RightFoot  -55.2131 6.82396 13.6378
RightToes  10.971 0.0257563 0.105642
Spine  23.391 2.45179 3.33625
Spine1  37.1211 2.74303 6.69574
HEad  -79.5365 53.035 -18.9249
LeftShoulder1  -1.94126e-019 -3.10601e-018 -2.51263e-017
LeftArm  37.1251 -65.2803 -124.5
LeftForeArm  51.3227 -4.38742 -0.735476
LeftHand  -0.501951 -3.93509 6.51757
RightShoulder  -4.96962e-017 0 -2.36833e-017
RightArm  22.1801 69.698 110.187
RightForeArm  79.5384 1.32824 0.146036
RightHand  -0.170555 -3.99367 -13.2341
LeftUpLeg  -90.2178 14.9594 27.8584
LeftLeg  165.135 -4.91114 1.64796
LeftFoot  -52.7904 -6.53404 -12.9606
LeftToes  5.83908 2.03064e-006 1.83538e-008
515
root  -54.8984 5.69146 -21.2066 162.47 -59.2121 -161.951
RightUpLeg  -92.031 -3.10599 10.1418
RightLeg  161.313 13.9801 -5.41399
RightFoot  -55.2343 6.75558 13.5016
RightToes  10.8978 0.0255383 0.107734
Spine  23.3373 2.52264 3.35594
Spine1  37.0122 2.85761 6.76836
HEad  -87.8209 59.3763 -26.0815
LeftShoulder1  -1.94126e-019 -3.10601e-018 -2.51263e-017
LeftArm  37.7338 -64.9103 -125.385
LeftForeArm  52.3136 -4.52372 -0.758193
LeftHand  -0.496954 -4.15407 6.32055
RightShoulder  -4.96962e-017 0 -2.36833e-017
RightArm  20.9089 69.6188 108.907
RightForeArm  79.288 1.40226 0.159555
RightHand  -0.179437 -3.91837 -13.1932
LeftUpLeg  -89.9836 14.9789 28.086
LeftLeg  165.188 -4.88933 1.63564
LeftFoot  -53.0959 -6.65673 -13.1171
LeftToes  7.04742 2.03064e-006 1.83538e-008
516
root  -54.9021 5.69135 -21.2059 162.402 -59.0499 -161.839
RightUpLeg  -92.1159 -3.12447 10.3039
RightLeg  161.285 13.9445 -5.4078
RightFoot  -55.1725 6.67672 13.368
RightToes  10.8831 0.0253144 0.109109
Spine  23.2462 2.60611 3.37913
Spine1  36.8268 2.99711 6.84994
HEad  -96.0999 63.3408 -32.9988
LeftShoulder1  -1.94126e-019 -3.10601e-018 -2.51263e-017
LeftArm  38.3914 -64.4794 -126.086
LeftForeArm  53.526 -4.63162 -0.775243
LeftHand  -0.499958 -4.42641 6.19671
RightShoulder  -4.96962e-017 0 -2.36833e-017
RightArm  19.6255 69.4434 107.483
RightForeArm  78.7475 1.46433 0.171861
RightHand  -0.182177 -3.88555 -13.1219
LeftUpLeg  -89.8293 15.0366 28.3269
LeftLeg  165.206 -4.85057 1.62105
LeftFoot  -53.1179 -6.7153 -13.2268
LeftToes  6.41665 2.03064e-006 1.83538e-008
517
root  -54.8996 5.6911 -21.1984 162.292 -58.8847 -161.703
RightUpLeg  -92.195 -3.12778 10.4105
RightLeg  161.231 13.8619 -5.39659
RightFoot  -55.0586 6.57003 13.1948
RightToes  10.711 0.025085 0.109839
Spine  23.1457 2.70827 3.40149
Spine1  36.6143 3.16854 6.944
HEad  -102.335 65.2724 -37.9041
LeftShoulder1  -1.94126e-019 -3.10601e-018 -2.51263e-017
LeftArm  39.1302 -64.0384 -126.87
LeftForeArm  54.9227 -4.59817 -0.766564
LeftHand  -0.517084 -4.68517 6.24945
RightShoulder  -4.96962e-017 0 -2.36833e-017
RightArm  18.1952 69.2417 105.99
RightForeArm  77.1623 1.51555 0.185493
RightHand  -0.163454 -4.01288 -12.699
LeftUpLeg  -89.6866 15.1303 28.5427
LeftLeg  165.227 -4.74561 1.5842
LeftFoot  -53.2474 -6.7715 -13.3003
LeftToes  6.53974 2.03064e-006 1.83538e-008
518
root  -54.8925 5.69084 -21.187 162.08 -58.7985 -161.501
RightUpLeg  -92.2184 -3.17493 10.5131
RightLeg  161.171 13.8164 -5.38846
RightFoot  -54.9554 6.48709 13.0634
RightToes  10.3519 0.0248504 0.109996
Spine  23.0572 2.77869 3.44596
Spine1  36.4286 3.30448 7.03957
HEad  -106.12 65.9377 -40.4283
LeftShoulder1  -1.94126e-019 -3.10601e-018 -2.51263e-017
LeftArm  39.8838 -63.6301 -127.627
LeftForeArm  55.901 -4.56795 -0.758955
LeftHand  -0.537467 -4.79882 6.41798
RightShoulder  -4.96962e-017 0 -2.36833e-017
RightArm  16.6463 69.0803 104.579
RightForeArm  75.2875 1.62161 0.209393
RightHand  -0.148483 -4.10455 -12.1945
LeftUpLeg  -89.6394 15.1651 28.7462
LeftLeg  165.247 -4.60718 1.53644
LeftFoot  -53.294 -6.78704 -13.3174
LeftToes  6.4256 2.03064e-006 1.83538e-008
519
root  -54.8874 5.69071 -21.1712 161.645 -58.7455 -161.133
RightUpLeg  -92.088 -3.29646 10.5873
RightLeg  161.11 13.7107 -5.36292
RightFoot  -54.902 6.39635 12.9032
RightToes  9.97719 0.0246109 0.109653
Spine  23.0038 2.79749 3.503
Spine1  36.2931 3.34336 7.14058
HEad  -108.573 65.8944 -41.358
LeftShoulder1  -1.94126e-019 -3.10601e-018 -2.51263e-017
LeftArm  40.7707 -63.3726 -128.33
LeftForeArm  56.7329 -4.44089 -0.73464
LeftHand  -0.555092 -4.96067 6.52395
RightShoulder  -4.96962e-017 0 -2.36833e-017
RightArm  15.3068 68.8705 103.631
RightForeArm  74.1459 1.86286 0.255217
RightHand  -0.122663 -4.31985 -11.7296
LeftUpLeg  -89.6551 15.0857 28.9264
LeftLeg  165.293 -4.54171 1.51064
LeftFoot  -53.2663 -6.81488 -13.3805
LeftToes  6.22534 2.03064e-006 1.83538e-008
520
root  -54.8841 5.69083 -21.1586 161.05 -58.8346 -160.685
RightUpLeg  -91.8524 -3.56193 10.629
RightLeg  161.064 13.6434 -5.34856
RightFoot  -54.8985 6.35174 12.8184
RightToes  9.97295 0.0243669 0.108881
Spine  23.0313 2.74388 3.60756
Spine1  36.3037 3.24291 7.27647
HEad  -109.878 65.7182 -41.7524
LeftShoulder1  -1.94126e-019 -3.10601e-018 -2.51263e-017
LeftArm  41.6511 -63.2803 -128.946
LeftForeArm  57.1267 -4.49278 -0.743375
LeftHand  -0.54746 -5.04686 6.39017
RightShoulder  -4.96962e-017 0 -2.36833e-017
RightArm  14.1982 68.9162 103.174
RightForeArm  73.9893 1.88678 0.259605
RightHand  -0.132867 -4.20485 -11.6242
LeftUpLeg  -89.7458 14.7976 29.1072
LeftLeg  165.312 -4.49752 1.49437
LeftFoot  -53.14 -6.81165 -13.411
LeftToes  6.05901 2.03064e-006 1.83538e-008
521
root  -54.8828 5.69154 -21.1514 160.512 -58.8508 -160.415
RightUpLeg  -91.4566 -3.70444 10.6386
RightLeg  161.023 13.5681 -5.32957
RightFoot  -54.9573 6.32271 12.7474
RightToes  9.71789 0.0241187 0.107752
Spine  23.1063 2.71082 3.68162
Spine1  36.3826 3.13781 7.41366
HEad  -111.001 65.4645 -42.209
LeftShoulder1  -1.94126e-019 -3.10601e-018 -2.51263e-017
LeftArm  42.2765 -63.2477 -129.341
LeftForeArm  56.965 -4.50194 -0.744505
LeftHand  -0.569788 -5.03734 6.64345
RightShoulder  -4.96962e-017 0 -2.36833e-017
RightArm  13.2805 68.9543 103.001
RightForeArm  73.8372 1.86094 0.255784
RightHand  -0.11833 -4.37252 -11.8295
LeftUpLeg  -89.6039 14.5213 29.2542
LeftLeg  165.33 -4.50967 1.49679
LeftFoot  -53.086 -6.83791 -13.4789
LeftToes  5.97221 2.03064e-006 1.83538e-008
522
root  -54.8967 5.6963 -21.1545 159.69 -58.9085 -160.128
RightUpLeg  -90.6386 -3.91119 10.5612
RightLeg  161.011 13.4616 -5.2898
RightFoot  -55.1801 6.3344 12.7121
RightToes  9.69051 0.0238668 0.106338
Spine  23.3739 2.63567 3.79619
Spine1  36.7998 2.99107 7.51225
HEad  -112.113 65.4096 -43.0395
LeftShoulder1  -1.94126e-019 -3.10601e-018 -2.51263e-017
LeftArm  42.8323 -63.4992 -129.712
LeftForeArm  56.2112 -4.55398 -0.755734
LeftHand  -0.54486 -4.81909 6.49027
RightShoulder  -4.96962e-017 0 -2.36833e-017
RightArm  12.229 69.1842 103.235
RightForeArm  74.4913 1.80304 0.243703
RightHand  -0.128448 -4.27003 -11.8336
LeftUpLeg  -89.1077 14.0723 29.4641
LeftLeg  165.367 -4.54288 1.50447
LeftFoot  -53.2189 -6.92388 -13.6096
LeftToes  6.58881 2.03064e-006 1.83538e-008
523
root  -54.8765 5.6952 -21.1506 159.599 -58.8646 -160.181
RightUpLeg  -90.6486 -3.75888 10.6437
RightLeg  160.973 13.5993 -5.3557
RightFoot  -55.029 6.35688 12.7943
RightToes  9.51251 0.0236113 0.104711
Spine  23.3479 2.66367 3.78333
Spine1  36.7503 3.05026 7.50414
HEad  -113.139 65.194 -43.9218
LeftShoulder1  -1.94126e-019 -3.10601e-018 -2.51263e-017
LeftArm  42.6793 -63.5468 -129.753
LeftForeArm  55.7884 -4.52261 -0.750992
LeftHand  -0.54227 -4.75695 6.4969
RightShoulder  -4.96962e-017 0 -2.36833e-017
RightArm  11.8859 69.1761 103.282
RightForeArm  74.3385 1.87265 0.256407
RightHand  -0.123555 -4.30877 -11.7079
LeftUpLeg  -89.1493 14.0438 29.3564
LeftLeg  165.352 -4.70636 1.55982
LeftFoot  -53.1639 -6.95122 -13.68
LeftToes  7.25508 2.03064e-006 1.83538e-008
524
root  -54.8871 5.69398 -21.1718 159.017 -58.8187 -160.273
RightUpLeg  -89.8151 -3.75689 10.6367
RightLeg  161.008 13.6286 -5.35784
RightFoot  -55.2387 6.41854 12.8576
RightToes  9.68997 0.0233526 0.102943
Spine  23.6357 2.68741 3.7823
Spine1  37.1908 3.0763 7.49789
HEad  -113.281 65.0219 -44.0328
LeftShoulder1  -1.94126e-019 -3.10601e-018 -2.51263e-017
LeftArm  42.7729 -63.6752 -130.012
LeftForeArm  55.6707 -4.4268 -0.734275
LeftHand  -0.543229 -4.62575 6.5855
RightShoulder  -4.96962e-017 0 -2.36833e-017
RightArm  10.7047 69.4616 103.592
RightForeArm  75.4715 1.72656 0.22761
RightHand  -0.132903 -4.22352 -11.8207
LeftUpLeg  -88.3127 13.8212 29.71
LeftLeg  165.37 -4.48555 1.4853
LeftFoot  -53.4398 -6.98007 -13.6546
LeftToes  8.36681 2.03064e-006 1.83538e-008
